<?xml version="1.0" encoding="UTF-8" standalone="no"?>
<!DOCTYPE svg PUBLIC "-//W3C//DTD SVG 1.1//EN"
 "http://www.w3.org/Graphics/SVG/1.1/DTD/svg11.dtd">
<!-- Generated by graphviz version 2.44.1 (20200629.0846)
 -->
<!-- Title: source tree Pages: 1 -->
<svg width="576pt" height="665pt"
 viewBox="0.00 0.00 576.00 664.56" xmlns="http://www.w3.org/2000/svg" xmlns:xlink="http://www.w3.org/1999/xlink">
<g id="graph0" class="graph" transform="scale(0.65 0.65) rotate(0) translate(4 1025.59)">
<title>source tree</title>
<polygon fill="white" stroke="transparent" points="-4,4 -4,-1025.59 888.38,-1025.59 888.38,4 -4,4"/>
<!-- dlib/\nmemory_manager/\nmemory_manager_kernel_2.h -->
<g id="node1" class="node">
<title>dlib/\nmemory_manager/\nmemory_manager_kernel_2.h</title>
<ellipse fill="none" stroke="black" cx="432.9" cy="-629" rx="128.89" ry="37.45"/>
<text text-anchor="middle" x="432.9" y="-640.3" font-family="Times New Roman,serif" font-size="14.00">dlib/</text>
<text text-anchor="middle" x="432.9" y="-625.3" font-family="Times New Roman,serif" font-size="14.00">memory_manager/</text>
<text text-anchor="middle" x="432.9" y="-610.3" font-family="Times New Roman,serif" font-size="14.00">memory_manager_kernel_2.h</text>
</g>
<!-- dlib/\nmemory_manager/\nmemory_manager_kernel_abstract.h -->
<g id="node2" class="node">
<title>dlib/\nmemory_manager/\nmemory_manager_kernel_abstract.h</title>
<ellipse fill="none" stroke="black" cx="432.9" cy="-336" rx="154.71" ry="37.45"/>
<text text-anchor="middle" x="432.9" y="-347.3" font-family="Times New Roman,serif" font-size="14.00">dlib/</text>
<text text-anchor="middle" x="432.9" y="-332.3" font-family="Times New Roman,serif" font-size="14.00">memory_manager/</text>
<text text-anchor="middle" x="432.9" y="-317.3" font-family="Times New Roman,serif" font-size="14.00">memory_manager_kernel_abstract.h</text>
</g>
<!-- dlib/\nmemory_manager/\nmemory_manager_kernel_2.h&#45;&gt;dlib/\nmemory_manager/\nmemory_manager_kernel_abstract.h -->
<g id="edge1" class="edge">
<title>dlib/\nmemory_manager/\nmemory_manager_kernel_2.h&#45;&gt;dlib/\nmemory_manager/\nmemory_manager_kernel_abstract.h</title>
<path fill="none" stroke="black" d="M432.9,-591.44C432.9,-538.84 432.9,-441.81 432.9,-383.97"/>
<polygon fill="black" stroke="black" points="436.4,-383.64 432.9,-373.64 429.4,-383.64 436.4,-383.64"/>
</g>
<!-- dlib/\nassert.h -->
<g id="node4" class="node">
<title>dlib/\nassert.h</title>
<ellipse fill="none" stroke="black" cx="217.9" cy="-336" rx="41.94" ry="26.74"/>
<text text-anchor="middle" x="217.9" y="-339.8" font-family="Times New Roman,serif" font-size="14.00">dlib/</text>
<text text-anchor="middle" x="217.9" y="-324.8" font-family="Times New Roman,serif" font-size="14.00">assert.h</text>
</g>
<!-- dlib/\nmemory_manager/\nmemory_manager_kernel_2.h&#45;&gt;dlib/\nassert.h -->
<g id="edge12" class="edge">
<title>dlib/\nmemory_manager/\nmemory_manager_kernel_2.h&#45;&gt;dlib/\nassert.h</title>
<path fill="none" stroke="black" d="M406.54,-592.32C364.28,-535.13 282.04,-423.81 241.56,-369.03"/>
<polygon fill="black" stroke="black" points="244.19,-366.7 235.44,-360.74 238.56,-370.86 244.19,-366.7"/>
</g>
<!-- dlib/\nalgs.h -->
<g id="node6" class="node">
<title>dlib/\nalgs.h</title>
<ellipse fill="none" stroke="black" cx="523.9" cy="-71" rx="34.8" ry="26.74"/>
<text text-anchor="middle" x="523.9" y="-74.8" font-family="Times New Roman,serif" font-size="14.00">dlib/</text>
<text text-anchor="middle" x="523.9" y="-59.8" font-family="Times New Roman,serif" font-size="14.00">algs.h</text>
</g>
<!-- dlib/\nmemory_manager/\nmemory_manager_kernel_2.h&#45;&gt;dlib/\nalgs.h -->
<g id="edge11" class="edge">
<title>dlib/\nmemory_manager/\nmemory_manager_kernel_2.h&#45;&gt;dlib/\nalgs.h</title>
<path fill="none" stroke="black" d="M465.34,-592.6C505.36,-546.28 571.23,-460.72 596.9,-373.48 625.35,-276.78 573.18,-160.32 543.06,-104.69"/>
<polygon fill="black" stroke="black" points="545.98,-102.72 538.08,-95.66 539.85,-106.11 545.98,-102.72"/>
</g>
<!-- dlib/\nmemory_manager/\nmemory_manager_kernel_abstract.h&#45;&gt;dlib/\nalgs.h -->
<g id="edge6" class="edge">
<title>dlib/\nmemory_manager/\nmemory_manager_kernel_abstract.h&#45;&gt;dlib/\nalgs.h</title>
<path fill="none" stroke="black" d="M445.55,-298.43C463.1,-247.73 494.59,-156.7 511.83,-106.9"/>
<polygon fill="black" stroke="black" points="515.21,-107.81 515.17,-97.22 508.6,-105.52 515.21,-107.81"/>
</g>
<!-- dlib/\nmemory_manager/\nmemory_manager_kernel_3.h -->
<g id="node3" class="node">
<title>dlib/\nmemory_manager/\nmemory_manager_kernel_3.h</title>
<ellipse fill="none" stroke="black" cx="712.9" cy="-923" rx="128.89" ry="37.45"/>
<text text-anchor="middle" x="712.9" y="-934.3" font-family="Times New Roman,serif" font-size="14.00">dlib/</text>
<text text-anchor="middle" x="712.9" y="-919.3" font-family="Times New Roman,serif" font-size="14.00">memory_manager/</text>
<text text-anchor="middle" x="712.9" y="-904.3" font-family="Times New Roman,serif" font-size="14.00">memory_manager_kernel_3.h</text>
</g>
<!-- dlib/\nmemory_manager/\nmemory_manager_kernel_3.h&#45;&gt;dlib/\nmemory_manager/\nmemory_manager_kernel_2.h -->
<g id="edge10" class="edge">
<title>dlib/\nmemory_manager/\nmemory_manager_kernel_3.h&#45;&gt;dlib/\nmemory_manager/\nmemory_manager_kernel_2.h</title>
<path fill="none" stroke="black" d="M679.13,-886.78C627.62,-833.07 529.58,-730.83 474.01,-672.88"/>
<polygon fill="black" stroke="black" points="476.24,-670.14 466.79,-665.35 471.19,-674.99 476.24,-670.14"/>
</g>
<!-- dlib/\nmemory_manager/\nmemory_manager_kernel_3.h&#45;&gt;dlib/\nmemory_manager/\nmemory_manager_kernel_abstract.h -->
<g id="edge3" class="edge">
<title>dlib/\nmemory_manager/\nmemory_manager_kernel_3.h&#45;&gt;dlib/\nmemory_manager/\nmemory_manager_kernel_abstract.h</title>
<path fill="none" stroke="black" d="M749.38,-886.57C808.43,-824.75 912.78,-694.02 854.9,-591.52 788.27,-473.52 642.54,-404.1 541.11,-368.32"/>
<polygon fill="black" stroke="black" points="542.03,-364.94 531.43,-364.97 539.73,-371.55 542.03,-364.94"/>
</g>
<!-- dlib/\nmemory_manager/\nmemory_manager_kernel_3.h&#45;&gt;dlib/\nassert.h -->
<g id="edge2" class="edge">
<title>dlib/\nmemory_manager/\nmemory_manager_kernel_3.h&#45;&gt;dlib/\nassert.h</title>
<path fill="none" stroke="black" d="M585.82,-916.61C423.37,-902.08 147.86,-850.04 19.9,-666.48 -56.17,-557.36 106.24,-418.43 181.89,-362.26"/>
<polygon fill="black" stroke="black" points="184.24,-364.87 190.23,-356.14 180.1,-359.23 184.24,-364.87"/>
</g>
<!-- dlib/\nmemory_manager/\nmemory_manager_kernel_3.h&#45;&gt;dlib/\nalgs.h -->
<g id="edge7" class="edge">
<title>dlib/\nmemory_manager/\nmemory_manager_kernel_3.h&#45;&gt;dlib/\nalgs.h</title>
<path fill="none" stroke="black" d="M750.84,-886.93C809.48,-828.25 911.93,-705.39 876.9,-591.52 811.17,-377.83 624.3,-173.19 552.49,-100.17"/>
<polygon fill="black" stroke="black" points="554.64,-97.36 545.11,-92.72 549.66,-102.29 554.64,-97.36"/>
</g>
<!-- dlib/\nbinary_search_tree/\nbinary_search_tree_kernel_2.h -->
<g id="node7" class="node">
<title>dlib/\nbinary_search_tree/\nbinary_search_tree_kernel_2.h</title>
<ellipse fill="none" stroke="black" cx="712.9" cy="-629" rx="132.87" ry="37.45"/>
<text text-anchor="middle" x="712.9" y="-640.3" font-family="Times New Roman,serif" font-size="14.00">dlib/</text>
<text text-anchor="middle" x="712.9" y="-625.3" font-family="Times New Roman,serif" font-size="14.00">binary_search_tree/</text>
<text text-anchor="middle" x="712.9" y="-610.3" font-family="Times New Roman,serif" font-size="14.00">binary_search_tree_kernel_2.h</text>
</g>
<!-- dlib/\nmemory_manager/\nmemory_manager_kernel_3.h&#45;&gt;dlib/\nbinary_search_tree/\nbinary_search_tree_kernel_2.h -->
<g id="edge8" class="edge">
<title>dlib/\nmemory_manager/\nmemory_manager_kernel_3.h&#45;&gt;dlib/\nbinary_search_tree/\nbinary_search_tree_kernel_2.h</title>
<path fill="none" stroke="black" d="M712.9,-885.31C712.9,-832.54 712.9,-735.17 712.9,-677.13"/>
<polygon fill="black" stroke="black" points="716.4,-676.77 712.9,-666.77 709.4,-676.77 716.4,-676.77"/>
</g>
<!-- dlib/\nmemory_manager/\nmemory_manager_kernel_1.h -->
<g id="node5" class="node">
<title>dlib/\nmemory_manager/\nmemory_manager_kernel_1.h</title>
<ellipse fill="none" stroke="black" cx="157.9" cy="-629" rx="128.89" ry="37.45"/>
<text text-anchor="middle" x="157.9" y="-640.3" font-family="Times New Roman,serif" font-size="14.00">dlib/</text>
<text text-anchor="middle" x="157.9" y="-625.3" font-family="Times New Roman,serif" font-size="14.00">memory_manager/</text>
<text text-anchor="middle" x="157.9" y="-610.3" font-family="Times New Roman,serif" font-size="14.00">memory_manager_kernel_1.h</text>
</g>
<!-- dlib/\nmemory_manager/\nmemory_manager_kernel_1.h&#45;&gt;dlib/\nmemory_manager/\nmemory_manager_kernel_abstract.h -->
<g id="edge5" class="edge">
<title>dlib/\nmemory_manager/\nmemory_manager_kernel_1.h&#45;&gt;dlib/\nmemory_manager/\nmemory_manager_kernel_abstract.h</title>
<path fill="none" stroke="black" d="M191.35,-592.61C241.89,-539.12 337.63,-437.81 392.17,-380.1"/>
<polygon fill="black" stroke="black" points="394.93,-382.27 399.26,-372.6 389.85,-377.46 394.93,-382.27"/>
</g>
<!-- dlib/\nmemory_manager/\nmemory_manager_kernel_1.h&#45;&gt;dlib/\nassert.h -->
<g id="edge4" class="edge">
<title>dlib/\nmemory_manager/\nmemory_manager_kernel_1.h&#45;&gt;dlib/\nassert.h</title>
<path fill="none" stroke="black" d="M165.44,-591.44C177,-535.37 198.97,-428.79 210.47,-373.03"/>
<polygon fill="black" stroke="black" points="213.97,-373.42 212.56,-362.91 207.11,-372 213.97,-373.42"/>
</g>
<!-- dlib/\nmemory_manager/\nmemory_manager_kernel_1.h&#45;&gt;dlib/\nalgs.h -->
<g id="edge9" class="edge">
<title>dlib/\nmemory_manager/\nmemory_manager_kernel_1.h&#45;&gt;dlib/\nalgs.h</title>
<path fill="none" stroke="black" d="M148.45,-591.44C134.05,-527.34 113.51,-392.57 166.9,-298.52 236.75,-175.48 403.81,-109.3 482.09,-84.12"/>
<polygon fill="black" stroke="black" points="483.15,-87.45 491.63,-81.11 481.04,-80.78 483.15,-87.45"/>
</g>
</g>
</svg>
