<svg class="bob" font-family="arial" font-size="14" height="400" width="440" xmlns="http://www.w3.org/2000/svg">
<defs>
<marker id="triangle" markerHeight="8" markerWidth="8" orient="auto" refX="4" refY="2" viewBox="0 0 8 4">
<polygon class="fg_fill" points="0,0 0,4 8,2 0,0"/>
</marker>
<marker id="clear_triangle" markerHeight="10" markerWidth="10" orient="auto" refX="1" refY="7" viewBox="0 0 20 14">
<polygon class="bg_fill fg_stroke" points="2,2 2,12 18,7 2,2"/>
</marker>
<marker id="circle" markerHeight="5" markerWidth="5" orient="auto" refX="10" refY="10" viewBox="0 0 20 20">
<circle class="fg_fill" cx="10" cy="10" r="8"/>
</marker>
<marker id="square" markerHeight="5" markerWidth="5" orient="auto" refX="10" refY="10" viewBox="0 0 20 20">
<rect class="fg_fill" height="20" width="20" x="0" y="0"/>
</marker>
<marker id="open_circle" markerHeight="10" markerWidth="10" orient="auto" refX="10" refY="10" viewBox="0 0 20 20">
<circle class="bg_fill fg_stroke" cx="10" cy="10" r="4"/>
</marker>
<marker id="big_open_circle" markerHeight="20" markerWidth="20" orient="auto" refX="20" refY="20" viewBox="0 0 40 40">
<circle class="bg_fill fg_stroke" cx="20" cy="20" r="6"/>
</marker>
</defs>
<style type="text/css">

rect.backdrop {
    fill: white;
}

.fg_fill {
    fill: black;
}


.bg_fill {
    fill: white;
}

.fg_stroke {
    stroke: black;
    stroke-width: 2;
}

.no_fill {
    fill: none;
}

.dashed {
    stroke-dasharray: 5;
}


text{
    fill: black;
}

line, path {
    stroke-linecap: round;
    stroke-linejoin: miter;
    stroke-opacity: 1;
    fill-opacity: 1;
}




tspan.head{
    fill: none;
    stroke: none;
}

</style>
<rect class="backdrop" height="400" width="440" x="0" y="0"/>
<g>
<line class="fg_stroke" x1="4" x2="4" y1="8" y2="88"/>
<line class="fg_stroke" x1="4" x2="436" y1="8" y2="8"/>
<line class="fg_stroke" x1="4" x2="84" y1="88" y2="88"/>
<line class="fg_stroke" x1="84" x2="348" y1="88" y2="88"/>
<line class="fg_stroke" x1="348" x2="436" y1="88" y2="88"/>
<line class="fg_stroke" x1="436" x2="436" y1="8" y2="88"/>
</g>
<g>
<line class="fg_stroke" x1="4" x2="4" y1="216" y2="392"/>
<line class="fg_stroke" x1="4" x2="84" y1="216" y2="216"/>
<line class="fg_stroke" x1="4" x2="436" y1="392" y2="392"/>
<line class="fg_stroke" x1="84" x2="348" y1="216" y2="216"/>
<line class="fg_stroke" x1="348" x2="436" y1="216" y2="216"/>
<line class="fg_stroke" x1="436" x2="436" y1="216" y2="392"/>
</g>
<g>
<line class="fg_stroke" x1="52" x2="52" y1="48" y2="64"/>
<line class="fg_stroke" x1="52" x2="56" y1="64" y2="64"/>
<line class="fg_stroke" x1="56" x2="52" y1="48" y2="48"/>
</g>
<g>
<line class="fg_stroke" x1="60" x2="60" y1="120" y2="184"/>
<line class="fg_stroke" x1="60" x2="364" y1="120" y2="120"/>
<line class="fg_stroke" x1="60" x2="364" y1="184" y2="184"/>
<line class="fg_stroke" x1="364" x2="364" y1="120" y2="184"/>
</g>
<g>
<line class="fg_stroke" marker-end="url(#triangle)" x1="84" x2="84" y1="80" y2="73"/>
<line class="fg_stroke" x1="84" x2="84" y1="80" y2="112"/>
</g>
<g>
<line class="fg_stroke" marker-end="url(#triangle)" x1="84" x2="84" y1="208" y2="196"/>
<line class="fg_stroke" x1="84" x2="84" y1="208" y2="244"/>
<path class="fg_stroke no_fill" d="M 84 244 A 4 4 0 0 0 88 248"/>
</g>
<g>
<line class="fg_stroke" x1="88" x2="152" y1="248" y2="248"/>
</g>
<g>
<line class="fg_stroke" x1="112" x2="116" y1="48" y2="48"/>
<line class="fg_stroke" x1="116" x2="116" y1="48" y2="64"/>
<line class="fg_stroke" x1="116" x2="112" y1="64" y2="64"/>
</g>
<g>
<line class="fg_stroke" marker-end="url(#triangle)" x1="128" x2="156" y1="56" y2="56"/>
</g>
<g>
<line class="fg_stroke" x1="132" x2="132" y1="284" y2="340"/>
<path class="fg_stroke no_fill" d="M 132 340 A 4 4 0 0 0 136 344"/>
<path class="fg_stroke no_fill" d="M 136 280 A 4 4 0 0 0 132 284"/>
</g>
<g>
<line class="fg_stroke" x1="136" x2="152" y1="280" y2="280"/>
</g>
<g>
<line class="fg_stroke" marker-end="url(#triangle)" x1="136" x2="148" y1="344" y2="344"/>
</g>
<g>
<line class="fg_stroke" x1="164" x2="164" y1="232" y2="296"/>
<line class="fg_stroke" x1="164" x2="268" y1="232" y2="232"/>
<line class="fg_stroke" x1="164" x2="268" y1="296" y2="296"/>
<line class="fg_stroke" x1="268" x2="268" y1="232" y2="296"/>
</g>
<g>
<line class="fg_stroke" x1="164" x2="164" y1="328" y2="360"/>
<line class="fg_stroke" x1="164" x2="268" y1="328" y2="328"/>
<line class="fg_stroke" x1="164" x2="268" y1="360" y2="360"/>
<line class="fg_stroke" x1="268" x2="268" y1="328" y2="360"/>
</g>
<g>
<line class="fg_stroke" x1="172" x2="172" y1="48" y2="64"/>
<line class="fg_stroke" x1="172" x2="176" y1="64" y2="64"/>
<line class="fg_stroke" x1="176" x2="172" y1="48" y2="48"/>
</g>
<g>
<line class="fg_stroke" x1="256" x2="260" y1="48" y2="48"/>
<line class="fg_stroke" x1="260" x2="260" y1="48" y2="64"/>
<line class="fg_stroke" x1="260" x2="256" y1="64" y2="64"/>
</g>
<g>
<line class="fg_stroke" marker-end="url(#triangle)" x1="272" x2="300" y1="56" y2="56"/>
</g>
<g>
<line class="fg_stroke" x1="280" x2="296" y1="344" y2="344"/>
<path class="fg_stroke no_fill" d="M 296 344 A 4 4 0 0 0 300 340"/>
</g>
<g>
<line class="fg_stroke" marker-end="url(#triangle)" x1="288" x2="284" y1="248" y2="248"/>
<line class="fg_stroke" x1="288" x2="344" y1="248" y2="248"/>
<path class="fg_stroke no_fill" d="M 344 248 A 4 4 0 0 0 348 244"/>
</g>
<g>
<line class="fg_stroke" marker-end="url(#triangle)" x1="288" x2="284" y1="280" y2="280"/>
<line class="fg_stroke" x1="288" x2="296" y1="280" y2="280"/>
<path class="fg_stroke no_fill" d="M 300 284 A 4 4 0 0 0 296 280"/>
</g>
<g>
<line class="fg_stroke" x1="300" x2="300" y1="284" y2="340"/>
</g>
<g>
<line class="fg_stroke" x1="316" x2="316" y1="48" y2="64"/>
<line class="fg_stroke" x1="316" x2="320" y1="64" y2="64"/>
<line class="fg_stroke" x1="320" x2="316" y1="48" y2="48"/>
</g>
<g>
<line class="fg_stroke" marker-end="url(#triangle)" x1="348" x2="348" y1="64" y2="108"/>
</g>
<g>
<line class="fg_stroke" x1="348" x2="348" y1="192" y2="244"/>
</g>
<g>
<line class="fg_stroke" x1="384" x2="388" y1="48" y2="48"/>
<line class="fg_stroke" x1="388" x2="388" y1="48" y2="64"/>
<line class="fg_stroke" x1="388" x2="384" y1="64" y2="64"/>
</g>
<g>
<text class="fg_fill" x="17" y="28">
functional programming
</text>
</g>
<g>
<text class="fg_fill" x="17" y="380">
operating system
</text>
</g>
<g>
<text class="fg_fill" x="51" y="316">
execute as
</text>
</g>
<g>
<text class="fg_fill" x="69" y="60">
input
</text>
</g>
<g>
<text class="fg_fill" x="192" y="60">
function
</text>
</g>
<g>
<text class="fg_fill" x="192" y="348">
process
</text>
</g>
<g>
<text class="fg_fill" x="208" y="156">
Nix
</text>
</g>
<g>
<text class="fg_fill" x="209" y="268">
file
</text>
</g>
<g>
<text class="fg_fill" x="313" y="312">
read, write,
</text>
</g>
<g>
<text class="fg_fill" x="313" y="330">
execute
</text>
</g>
<g>
<text class="fg_fill" x="333" y="60">
output
</text>
</g>
</svg>
