<svg xmlns="http://www.w3.org/2000/svg" viewBox="0 0 500 500" width="500" height="500">
  <defs>
    <linearGradient id="boxGradient" x1="0%" y1="0%" x2="0%" y2="100%">
      <stop offset="0%" style="stop-color:#F2C98A;stop-opacity:1" />
      <stop offset="100%" style="stop-color:#D9A066;stop-opacity:1" />
    </linearGradient>
    <linearGradient id="metalGradient" x1="0%" y1="0%" x2="100%" y2="100%">
      <stop offset="0%" style="stop-color:#D0D0D0;stop-opacity:1" />
      <stop offset="100%" style="stop-color:#A0A0A0;stop-opacity:1" />
    </linearGradient>
    <radialGradient id="eyeGlow" cx="50%" cy="50%" r="50%" fx="50%" fy="50%">
      <stop offset="0%" style="stop-color:#A6F0FF;stop-opacity:1" />
      <stop offset="80%" style="stop-color:#4DD0E1;stop-opacity:1" />
      <stop offset="100%" style="stop-color:#00BCD4;stop-opacity:1" />
    </radialGradient>
    <style>
      .thick-outline { stroke: #5E3A1F; stroke-width: 8px; stroke-linecap: round; stroke-linejoin: round; }
      .medium-outline { stroke: #5E3A1F; stroke-width: 6px; stroke-linecap: round; stroke-linejoin: round; }
      .metal-outline { stroke: #4A4A4A; stroke-width: 6px; stroke-linecap: round; stroke-linejoin: round; }
    </style>
  </defs>

  <g transform="translate(250, 260)">

    <g class="metal-outline" fill="url(#metalGradient)">
      <g transform="translate(-70, 80) rotate(-10)">
        <rect x="-20" y="-30" width="40" height="70" rx="20" />
        <circle cx="0" cy="45" r="25" />
        <circle cx="0" cy="65" r="10" fill="#707070" stroke="none"/>
      </g>
      <g transform="translate(70, 80) rotate(10)">
        <rect x="-20" y="-30" width="40" height="70" rx="20" />
        <circle cx="0" cy="45" r="25" />
        <circle cx="0" cy="65" r="10" fill="#707070" stroke="none"/>
      </g>
    </g>

    <rect x="-120" y="-110" width="240" height="200" rx="50" ry="50" fill="url(#boxGradient)" class="thick-outline" />

    <rect x="-130" y="-20" width="260" height="40" rx="20" ry="20" fill="#FCEBC5" class="medium-outline" opacity="0.9"/>

    <g class="medium-outline">
      <circle cx="-50" cy="-50" r="20" fill="url(#eyeGlow)" />
      <circle cx="50" cy="-50" r="20" fill="url(#eyeGlow)" />
      <circle cx="-40" cy="-60" r="6" fill="white" stroke="none" opacity="0.8"/>
      <circle cx="60" cy="-60" r="6" fill="white" stroke="none" opacity="0.8"/>
    </g>

    <g class="metal-outline">
      <line x1="0" y1="-110" x2="0" y2="-160" stroke-width="8"/>
      <circle cx="0" cy="-170" r="15" fill="url(#eyeGlow)" />
    </g>

    <g transform="translate(110, 20)" class="metal-outline" fill="url(#metalGradient)">
      <circle cx="0" cy="0" r="30" />
      <circle cx="0" cy="0" r="15" fill="none" stroke="#707070" stroke-width="4" stroke-dasharray="8,4" />
      <circle cx="0" cy="0" r="8" fill="#707070" stroke="none"/>
    </g>

     <rect x="-100" y="40" width="40" height="30" rx="5" fill="#C0C0C0" class="metal-outline" stroke-width="4"/>
    <circle cx="-90" cy="55" r="3" fill="#4A4A4A" stroke="none"/>
    <circle cx="-70" cy="55" r="3" fill="#4A4A4A" stroke="none"/>

  </g>
</svg>
