<?xml version="1.0" encoding="UTF-8" standalone="no"?>
<!DOCTYPE svg PUBLIC "-//W3C//DTD SVG 1.1//EN"
 "http://www.w3.org/Graphics/SVG/1.1/DTD/svg11.dtd">
<!-- Generated by graphviz version 2.44.1 (20200629.0846)
 -->
<!-- Title: source tree Pages: 1 -->
<svg width="576pt" height="719pt"
 viewBox="0.00 0.00 576.00 719.38" xmlns="http://www.w3.org/2000/svg" xmlns:xlink="http://www.w3.org/1999/xlink">
<g id="graph0" class="graph" transform="scale(0.26 0.26) rotate(0) translate(4 2801.5)">
<title>source tree</title>
<polygon fill="white" stroke="transparent" points="-4,4 -4,-2801.5 2242.34,-2801.5 2242.34,4 -4,4"/>
<!-- xbasic_fixed_string.hpp -->
<g id="node1" class="node">
<title>xbasic_fixed_string.hpp</title>
<ellipse fill="none" stroke="black" cx="2139.54" cy="-538" rx="98.58" ry="18"/>
<text text-anchor="middle" x="2139.54" y="-534.3" font-family="Times New Roman,serif" font-size="14.00">xbasic_fixed_string.hpp</text>
</g>
<!-- xtl_config.hpp -->
<g id="node2" class="node">
<title>xtl_config.hpp</title>
<ellipse fill="none" stroke="black" cx="1723.54" cy="-108" rx="63.89" ry="18"/>
<text text-anchor="middle" x="1723.54" y="-104.3" font-family="Times New Roman,serif" font-size="14.00">xtl_config.hpp</text>
</g>
<!-- xbasic_fixed_string.hpp&#45;&gt;xtl_config.hpp -->
<g id="edge1" class="edge">
<title>xbasic_fixed_string.hpp&#45;&gt;xtl_config.hpp</title>
<path fill="none" stroke="black" d="M2123.24,-520.22C2058.9,-454.03 1822.52,-210.83 1746.94,-133.07"/>
<polygon fill="black" stroke="black" points="1749.22,-130.39 1739.74,-125.66 1744.2,-135.27 1749.22,-130.39"/>
</g>
<!-- xhash.hpp -->
<g id="node27" class="node">
<title>xhash.hpp</title>
<ellipse fill="none" stroke="black" cx="2139.54" cy="-108" rx="48.19" ry="18"/>
<text text-anchor="middle" x="2139.54" y="-104.3" font-family="Times New Roman,serif" font-size="14.00">xhash.hpp</text>
</g>
<!-- xbasic_fixed_string.hpp&#45;&gt;xhash.hpp -->
<g id="edge44" class="edge">
<title>xbasic_fixed_string.hpp&#45;&gt;xhash.hpp</title>
<path fill="none" stroke="black" d="M2139.54,-519.96C2139.54,-454.33 2139.54,-217.55 2139.54,-136.47"/>
<polygon fill="black" stroke="black" points="2143.04,-136.09 2139.54,-126.09 2136.04,-136.09 2143.04,-136.09"/>
</g>
<!-- xoptional_meta.hpp -->
<g id="node3" class="node">
<title>xoptional_meta.hpp</title>
<ellipse fill="none" stroke="black" cx="1641.54" cy="-1829" rx="83.39" ry="18"/>
<text text-anchor="middle" x="1641.54" y="-1825.3" font-family="Times New Roman,serif" font-size="14.00">xoptional_meta.hpp</text>
</g>
<!-- xmeta_utils.hpp -->
<g id="node4" class="node">
<title>xmeta_utils.hpp</title>
<ellipse fill="none" stroke="black" cx="1429.54" cy="-1399" rx="68.49" ry="18"/>
<text text-anchor="middle" x="1429.54" y="-1395.3" font-family="Times New Roman,serif" font-size="14.00">xmeta_utils.hpp</text>
</g>
<!-- xoptional_meta.hpp&#45;&gt;xmeta_utils.hpp -->
<g id="edge2" class="edge">
<title>xoptional_meta.hpp&#45;&gt;xmeta_utils.hpp</title>
<path fill="none" stroke="black" d="M1633.1,-1810.96C1600.46,-1745.06 1482.35,-1506.61 1442.66,-1426.48"/>
<polygon fill="black" stroke="black" points="1445.58,-1424.5 1438.01,-1417.09 1439.31,-1427.61 1445.58,-1424.5"/>
</g>
<!-- xtype_traits.hpp -->
<g id="node11" class="node">
<title>xtype_traits.hpp</title>
<ellipse fill="none" stroke="black" cx="1630.54" cy="-538" rx="69.59" ry="18"/>
<text text-anchor="middle" x="1630.54" y="-534.3" font-family="Times New Roman,serif" font-size="14.00">xtype_traits.hpp</text>
</g>
<!-- xoptional_meta.hpp&#45;&gt;xtype_traits.hpp -->
<g id="edge45" class="edge">
<title>xoptional_meta.hpp&#45;&gt;xtype_traits.hpp</title>
<path fill="none" stroke="black" d="M1636.03,-1811.03C1618.28,-1755.34 1562.68,-1572.84 1544.54,-1417 1505.55,-1082.02 1597.26,-673.75 1623.68,-566.07"/>
<polygon fill="black" stroke="black" points="1627.15,-566.61 1626.16,-556.06 1620.36,-564.92 1627.15,-566.61"/>
</g>
<!-- xmasked_value_meta.hpp -->
<g id="node18" class="node">
<title>xmasked_value_meta.hpp</title>
<ellipse fill="none" stroke="black" cx="1658.54" cy="-1399" rx="104.78" ry="18"/>
<text text-anchor="middle" x="1658.54" y="-1395.3" font-family="Times New Roman,serif" font-size="14.00">xmasked_value_meta.hpp</text>
</g>
<!-- xoptional_meta.hpp&#45;&gt;xmasked_value_meta.hpp -->
<g id="edge26" class="edge">
<title>xoptional_meta.hpp&#45;&gt;xmasked_value_meta.hpp</title>
<path fill="none" stroke="black" d="M1642.22,-1810.96C1644.83,-1745.33 1654.23,-1508.55 1657.45,-1427.47"/>
<polygon fill="black" stroke="black" points="1660.97,-1427.22 1657.86,-1417.09 1653.97,-1426.94 1660.97,-1427.22"/>
</g>
<!-- xmeta_utils.hpp&#45;&gt;xtl_config.hpp -->
<g id="edge6" class="edge">
<title>xmeta_utils.hpp&#45;&gt;xtl_config.hpp</title>
<path fill="none" stroke="black" d="M1462.31,-1383.01C1555.18,-1338.46 1819.69,-1196.68 1917.54,-986 2063.39,-671.99 1810.32,-242.97 1740.59,-134.64"/>
<polygon fill="black" stroke="black" points="1743.36,-132.48 1734.97,-126 1737.49,-136.29 1743.36,-132.48"/>
</g>
<!-- xfunctional.hpp -->
<g id="node10" class="node">
<title>xfunctional.hpp</title>
<ellipse fill="none" stroke="black" cx="1429.54" cy="-968" rx="67.69" ry="18"/>
<text text-anchor="middle" x="1429.54" y="-964.3" font-family="Times New Roman,serif" font-size="14.00">xfunctional.hpp</text>
</g>
<!-- xmeta_utils.hpp&#45;&gt;xfunctional.hpp -->
<g id="edge19" class="edge">
<title>xmeta_utils.hpp&#45;&gt;xfunctional.hpp</title>
<path fill="none" stroke="black" d="M1429.54,-1380.92C1429.54,-1315.13 1429.54,-1077.8 1429.54,-996.53"/>
<polygon fill="black" stroke="black" points="1433.04,-996.13 1429.54,-986.13 1426.04,-996.13 1433.04,-996.13"/>
</g>
<!-- xcomplex_sequence.hpp -->
<g id="node5" class="node">
<title>xcomplex_sequence.hpp</title>
<ellipse fill="none" stroke="black" cx="688.54" cy="-2260" rx="101.28" ry="18"/>
<text text-anchor="middle" x="688.54" y="-2256.3" font-family="Times New Roman,serif" font-size="14.00">xcomplex_sequence.hpp</text>
</g>
<!-- xclosure.hpp -->
<g id="node6" class="node">
<title>xclosure.hpp</title>
<ellipse fill="none" stroke="black" cx="650.54" cy="-1399" rx="57.69" ry="18"/>
<text text-anchor="middle" x="650.54" y="-1395.3" font-family="Times New Roman,serif" font-size="14.00">xclosure.hpp</text>
</g>
<!-- xcomplex_sequence.hpp&#45;&gt;xclosure.hpp -->
<g id="edge3" class="edge">
<title>xcomplex_sequence.hpp&#45;&gt;xclosure.hpp</title>
<path fill="none" stroke="black" d="M685.59,-2241.8C676.06,-2185.43 646.22,-2000.98 636.54,-1847 626.56,-1688.12 641.55,-1497.01 647.91,-1427.21"/>
<polygon fill="black" stroke="black" points="651.41,-1427.35 648.85,-1417.07 644.44,-1426.7 651.41,-1427.35"/>
</g>
<!-- xiterator_base.hpp -->
<g id="node9" class="node">
<title>xiterator_base.hpp</title>
<ellipse fill="none" stroke="black" cx="505.54" cy="-1829" rx="78.79" ry="18"/>
<text text-anchor="middle" x="505.54" y="-1825.3" font-family="Times New Roman,serif" font-size="14.00">xiterator_base.hpp</text>
</g>
<!-- xcomplex_sequence.hpp&#45;&gt;xiterator_base.hpp -->
<g id="edge39" class="edge">
<title>xcomplex_sequence.hpp&#45;&gt;xiterator_base.hpp</title>
<path fill="none" stroke="black" d="M681.26,-2241.92C653.08,-2175.86 551.13,-1936.86 516.87,-1856.54"/>
<polygon fill="black" stroke="black" points="519.99,-1854.96 512.85,-1847.13 513.56,-1857.7 519.99,-1854.96"/>
</g>
<!-- xcomplex.hpp -->
<g id="node12" class="node">
<title>xcomplex.hpp</title>
<ellipse fill="none" stroke="black" cx="741.54" cy="-1829" rx="63.09" ry="18"/>
<text text-anchor="middle" x="741.54" y="-1825.3" font-family="Times New Roman,serif" font-size="14.00">xcomplex.hpp</text>
</g>
<!-- xcomplex_sequence.hpp&#45;&gt;xcomplex.hpp -->
<g id="edge12" class="edge">
<title>xcomplex_sequence.hpp&#45;&gt;xcomplex.hpp</title>
<path fill="none" stroke="black" d="M690.65,-2241.92C698.78,-2176.13 728.1,-1938.8 738.14,-1857.53"/>
<polygon fill="black" stroke="black" points="741.67,-1857.48 739.43,-1847.13 734.73,-1856.63 741.67,-1857.48"/>
</g>
<!-- xsequence.hpp -->
<g id="node17" class="node">
<title>xsequence.hpp</title>
<ellipse fill="none" stroke="black" cx="2068.54" cy="-1829" rx="65.79" ry="18"/>
<text text-anchor="middle" x="2068.54" y="-1825.3" font-family="Times New Roman,serif" font-size="14.00">xsequence.hpp</text>
</g>
<!-- xcomplex_sequence.hpp&#45;&gt;xsequence.hpp -->
<g id="edge17" class="edge">
<title>xcomplex_sequence.hpp&#45;&gt;xsequence.hpp</title>
<path fill="none" stroke="black" d="M736.45,-2244.11C948.12,-2178.31 1798.7,-1913.89 2017.18,-1845.97"/>
<polygon fill="black" stroke="black" points="2018.3,-1849.29 2026.81,-1842.98 2016.22,-1842.6 2018.3,-1849.29"/>
</g>
<!-- xclosure.hpp&#45;&gt;xtl_config.hpp -->
<g id="edge46" class="edge">
<title>xclosure.hpp&#45;&gt;xtl_config.hpp</title>
<path fill="none" stroke="black" d="M646.04,-1380.83C621.78,-1284.29 515.33,-803.31 722.54,-520 951.92,-206.4 1464.01,-131.25 1652.3,-113.96"/>
<polygon fill="black" stroke="black" points="1652.72,-117.43 1662.37,-113.06 1652.09,-110.46 1652.72,-117.43"/>
</g>
<!-- xproxy_wrapper.hpp -->
<g id="node7" class="node">
<title>xproxy_wrapper.hpp</title>
<ellipse fill="none" stroke="black" cx="321.54" cy="-1829" rx="87.99" ry="18"/>
<text text-anchor="middle" x="321.54" y="-1825.3" font-family="Times New Roman,serif" font-size="14.00">xproxy_wrapper.hpp</text>
</g>
<!-- xproxy_wrapper.hpp&#45;&gt;xclosure.hpp -->
<g id="edge4" class="edge">
<title>xproxy_wrapper.hpp&#45;&gt;xclosure.hpp</title>
<path fill="none" stroke="black" d="M334.64,-1810.96C385.62,-1744.64 570.92,-1503.58 631.35,-1424.97"/>
<polygon fill="black" stroke="black" points="634.44,-1426.69 637.76,-1416.63 628.89,-1422.42 634.44,-1426.69"/>
</g>
<!-- xdynamic_bitset.hpp -->
<g id="node8" class="node">
<title>xdynamic_bitset.hpp</title>
<ellipse fill="none" stroke="black" cx="205.54" cy="-2260" rx="87.18" ry="18"/>
<text text-anchor="middle" x="205.54" y="-2256.3" font-family="Times New Roman,serif" font-size="14.00">xdynamic_bitset.hpp</text>
</g>
<!-- xdynamic_bitset.hpp&#45;&gt;xclosure.hpp -->
<g id="edge35" class="edge">
<title>xdynamic_bitset.hpp&#45;&gt;xclosure.hpp</title>
<path fill="none" stroke="black" d="M201.91,-2241.7C189.77,-2179.83 155.22,-1965.05 224.54,-1811 310.59,-1619.79 530.07,-1472.3 615.64,-1420.3"/>
<polygon fill="black" stroke="black" points="617.45,-1423.29 624.21,-1415.14 613.84,-1417.3 617.45,-1423.29"/>
</g>
<!-- xdynamic_bitset.hpp&#45;&gt;xiterator_base.hpp -->
<g id="edge5" class="edge">
<title>xdynamic_bitset.hpp&#45;&gt;xiterator_base.hpp</title>
<path fill="none" stroke="black" d="M217.49,-2241.92C263.87,-2175.59 432.18,-1934.91 487.67,-1855.57"/>
<polygon fill="black" stroke="black" points="490.7,-1857.33 493.56,-1847.13 484.97,-1853.32 490.7,-1857.33"/>
</g>
<!-- xdynamic_bitset.hpp&#45;&gt;xtype_traits.hpp -->
<g id="edge30" class="edge">
<title>xdynamic_bitset.hpp&#45;&gt;xtype_traits.hpp</title>
<path fill="none" stroke="black" d="M201.51,-2241.97C187.92,-2181 147.85,-1968.87 207.54,-1811 472.58,-1110.02 1379.93,-654.84 1587.85,-558.25"/>
<polygon fill="black" stroke="black" points="1589.61,-561.29 1597.22,-553.92 1586.67,-554.94 1589.61,-561.29"/>
</g>
<!-- xspan.hpp -->
<g id="node25" class="node">
<title>xspan.hpp</title>
<ellipse fill="none" stroke="black" cx="80.54" cy="-1829" rx="48.99" ry="18"/>
<text text-anchor="middle" x="80.54" y="-1825.3" font-family="Times New Roman,serif" font-size="14.00">xspan.hpp</text>
</g>
<!-- xdynamic_bitset.hpp&#45;&gt;xspan.hpp -->
<g id="edge40" class="edge">
<title>xdynamic_bitset.hpp&#45;&gt;xspan.hpp</title>
<path fill="none" stroke="black" d="M200.57,-2241.92C181.36,-2176 111.96,-1937.83 88.42,-1857.03"/>
<polygon fill="black" stroke="black" points="91.69,-1855.75 85.54,-1847.13 84.97,-1857.71 91.69,-1855.75"/>
</g>
<!-- xfunctional.hpp&#45;&gt;xtl_config.hpp -->
<g id="edge32" class="edge">
<title>xfunctional.hpp&#45;&gt;xtl_config.hpp</title>
<path fill="none" stroke="black" d="M1433.41,-949.7C1447.02,-889.57 1495.01,-684.3 1551.54,-520 1602.67,-371.42 1680.95,-199.86 1711.11,-135.34"/>
<polygon fill="black" stroke="black" points="1714.45,-136.46 1715.52,-125.92 1708.11,-133.49 1714.45,-136.46"/>
</g>
<!-- xfunctional.hpp&#45;&gt;xtype_traits.hpp -->
<g id="edge7" class="edge">
<title>xfunctional.hpp&#45;&gt;xtype_traits.hpp</title>
<path fill="none" stroke="black" d="M1437.55,-949.96C1468.5,-884.06 1580.48,-645.61 1618.11,-565.48"/>
<polygon fill="black" stroke="black" points="1621.43,-566.63 1622.52,-556.09 1615.1,-563.65 1621.43,-566.63"/>
</g>
<!-- xtype_traits.hpp&#45;&gt;xtl_config.hpp -->
<g id="edge9" class="edge">
<title>xtype_traits.hpp&#45;&gt;xtl_config.hpp</title>
<path fill="none" stroke="black" d="M1634.25,-519.96C1648.54,-454.19 1700.17,-216.58 1717.68,-135.97"/>
<polygon fill="black" stroke="black" points="1721.13,-136.61 1719.83,-126.09 1714.29,-135.12 1721.13,-136.61"/>
</g>
<!-- xcomplex.hpp&#45;&gt;xtl_config.hpp -->
<g id="edge42" class="edge">
<title>xcomplex.hpp&#45;&gt;xtl_config.hpp</title>
<path fill="none" stroke="black" d="M739.64,-1810.66C733.6,-1749.53 718.5,-1539.22 776.54,-1381 991.55,-794.91 1568.65,-249.13 1697.7,-132.07"/>
<polygon fill="black" stroke="black" points="1700.14,-134.58 1705.21,-125.28 1695.45,-129.39 1700.14,-134.58"/>
</g>
<!-- xcomplex.hpp&#45;&gt;xclosure.hpp -->
<g id="edge10" class="edge">
<title>xcomplex.hpp&#45;&gt;xclosure.hpp</title>
<path fill="none" stroke="black" d="M737.92,-1810.96C723.94,-1745.19 673.42,-1507.58 656.28,-1426.97"/>
<polygon fill="black" stroke="black" points="659.68,-1426.14 654.18,-1417.09 652.83,-1427.6 659.68,-1426.14"/>
</g>
<!-- xcomplex.hpp&#45;&gt;xtype_traits.hpp -->
<g id="edge8" class="edge">
<title>xcomplex.hpp&#45;&gt;xtype_traits.hpp</title>
<path fill="none" stroke="black" d="M739.67,-1810.67C733.75,-1748.71 719.94,-1533.72 793.54,-1381 990.15,-973.06 1465.77,-645.16 1596.69,-560.38"/>
<polygon fill="black" stroke="black" points="1598.65,-563.28 1605.16,-554.92 1594.86,-557.4 1598.65,-563.28"/>
</g>
<!-- xoptional.hpp -->
<g id="node13" class="node">
<title>xoptional.hpp</title>
<ellipse fill="none" stroke="black" cx="1000.54" cy="-2260" rx="61.19" ry="18"/>
<text text-anchor="middle" x="1000.54" y="-2256.3" font-family="Times New Roman,serif" font-size="14.00">xoptional.hpp</text>
</g>
<!-- xoptional.hpp&#45;&gt;xtl_config.hpp -->
<g id="edge24" class="edge">
<title>xoptional.hpp&#45;&gt;xtl_config.hpp</title>
<path fill="none" stroke="black" d="M1057.46,-2253.42C1224.93,-2233.68 1717.91,-2150.96 1935.54,-1847 2051.64,-1684.86 1974.54,-1599.42 1974.54,-1400 1974.54,-1400 1974.54,-1400 1974.54,-967 1974.54,-767.73 1994.81,-711.46 1939.54,-520 1894.16,-362.77 1784.92,-196.44 1741.64,-134.32"/>
<polygon fill="black" stroke="black" points="1744.36,-132.1 1735.75,-125.93 1738.63,-136.13 1744.36,-132.1"/>
</g>
<!-- xoptional.hpp&#45;&gt;xoptional_meta.hpp -->
<g id="edge23" class="edge">
<title>xoptional.hpp&#45;&gt;xoptional_meta.hpp</title>
<path fill="none" stroke="black" d="M1024.12,-2243.22C1121.86,-2177.81 1495.42,-1927.8 1608.75,-1851.95"/>
<polygon fill="black" stroke="black" points="1610.71,-1854.85 1617.07,-1846.38 1606.81,-1849.03 1610.71,-1854.85"/>
</g>
<!-- xoptional.hpp&#45;&gt;xmeta_utils.hpp -->
<g id="edge11" class="edge">
<title>xoptional.hpp&#45;&gt;xmeta_utils.hpp</title>
<path fill="none" stroke="black" d="M997.01,-2241.75C985.22,-2180.03 951.7,-1965.71 1019.54,-1811 1101.85,-1623.31 1312.08,-1474.48 1395.08,-1421.19"/>
<polygon fill="black" stroke="black" points="1397.08,-1424.07 1403.64,-1415.75 1393.32,-1418.16 1397.08,-1424.07"/>
</g>
<!-- xoptional.hpp&#45;&gt;xclosure.hpp -->
<g id="edge22" class="edge">
<title>xoptional.hpp&#45;&gt;xclosure.hpp</title>
<path fill="none" stroke="black" d="M980.64,-2242.81C920.07,-2192.13 738,-2029.07 669.54,-1847 613.12,-1696.93 635.33,-1498.27 646.05,-1426.93"/>
<polygon fill="black" stroke="black" points="649.52,-1427.4 647.6,-1416.98 642.61,-1426.32 649.52,-1427.4"/>
</g>
<!-- xoptional.hpp&#45;&gt;xfunctional.hpp -->
<g id="edge25" class="edge">
<title>xoptional.hpp&#45;&gt;xfunctional.hpp</title>
<path fill="none" stroke="black" d="M997.91,-2241.98C989.17,-2181.92 963.92,-1974.66 1003.54,-1811 1088.21,-1461.31 1341.14,-1091.91 1411.31,-993.99"/>
<polygon fill="black" stroke="black" points="1414.15,-996.04 1417.16,-985.88 1408.47,-991.94 1414.15,-996.04"/>
</g>
<!-- xoptional.hpp&#45;&gt;xtype_traits.hpp -->
<g id="edge27" class="edge">
<title>xoptional.hpp&#45;&gt;xtype_traits.hpp</title>
<path fill="none" stroke="black" d="M1058.24,-2253.81C1226.6,-2235.21 1717.97,-2155.46 1917.54,-1847 1991.1,-1733.3 1693.04,-743.12 1638.87,-566.05"/>
<polygon fill="black" stroke="black" points="1642.13,-564.76 1635.86,-556.23 1635.44,-566.81 1642.13,-564.76"/>
</g>
<!-- xmultimethods.hpp -->
<g id="node14" class="node">
<title>xmultimethods.hpp</title>
<ellipse fill="none" stroke="black" cx="1459.54" cy="-1829" rx="80.69" ry="18"/>
<text text-anchor="middle" x="1459.54" y="-1825.3" font-family="Times New Roman,serif" font-size="14.00">xmultimethods.hpp</text>
</g>
<!-- xmultimethods.hpp&#45;&gt;xmeta_utils.hpp -->
<g id="edge13" class="edge">
<title>xmultimethods.hpp&#45;&gt;xmeta_utils.hpp</title>
<path fill="none" stroke="black" d="M1458.35,-1810.96C1453.75,-1745.33 1437.15,-1508.55 1431.47,-1427.47"/>
<polygon fill="black" stroke="black" points="1434.93,-1426.82 1430.74,-1417.09 1427.95,-1427.31 1434.93,-1426.82"/>
</g>
<!-- xvariant.hpp -->
<g id="node15" class="node">
<title>xvariant.hpp</title>
<ellipse fill="none" stroke="black" cx="878.54" cy="-1829" rx="55.79" ry="18"/>
<text text-anchor="middle" x="878.54" y="-1825.3" font-family="Times New Roman,serif" font-size="14.00">xvariant.hpp</text>
</g>
<!-- xvariant.hpp&#45;&gt;xmeta_utils.hpp -->
<g id="edge20" class="edge">
<title>xvariant.hpp&#45;&gt;xmeta_utils.hpp</title>
<path fill="none" stroke="black" d="M899.14,-1812C983.43,-1746.53 1302.27,-1498.86 1400.53,-1422.53"/>
<polygon fill="black" stroke="black" points="1402.8,-1425.2 1408.55,-1416.31 1398.51,-1419.68 1402.8,-1425.2"/>
</g>
<!-- xvariant.hpp&#45;&gt;xclosure.hpp -->
<g id="edge14" class="edge">
<title>xvariant.hpp&#45;&gt;xclosure.hpp</title>
<path fill="none" stroke="black" d="M869.61,-1811.22C834.64,-1745.58 706.93,-1505.86 664.42,-1426.04"/>
<polygon fill="black" stroke="black" points="667.46,-1424.31 659.67,-1417.13 661.28,-1427.6 667.46,-1424.31"/>
</g>
<!-- xvariant_impl.hpp -->
<g id="node22" class="node">
<title>xvariant_impl.hpp</title>
<ellipse fill="none" stroke="black" cx="878.54" cy="-1399" rx="76.09" ry="18"/>
<text text-anchor="middle" x="878.54" y="-1395.3" font-family="Times New Roman,serif" font-size="14.00">xvariant_impl.hpp</text>
</g>
<!-- xvariant.hpp&#45;&gt;xvariant_impl.hpp -->
<g id="edge36" class="edge">
<title>xvariant.hpp&#45;&gt;xvariant_impl.hpp</title>
<path fill="none" stroke="black" d="M878.54,-1810.96C878.54,-1745.33 878.54,-1508.55 878.54,-1427.47"/>
<polygon fill="black" stroke="black" points="882.04,-1427.09 878.54,-1417.09 875.04,-1427.09 882.04,-1427.09"/>
</g>
<!-- xoptional_sequence.hpp -->
<g id="node16" class="node">
<title>xoptional_sequence.hpp</title>
<ellipse fill="none" stroke="black" cx="779.54" cy="-2690" rx="99.38" ry="18"/>
<text text-anchor="middle" x="779.54" y="-2686.3" font-family="Times New Roman,serif" font-size="14.00">xoptional_sequence.hpp</text>
</g>
<!-- xoptional_sequence.hpp&#45;&gt;xdynamic_bitset.hpp -->
<g id="edge43" class="edge">
<title>xoptional_sequence.hpp&#45;&gt;xdynamic_bitset.hpp</title>
<path fill="none" stroke="black" d="M757.04,-2672.22C667.63,-2605.55 337.4,-2359.32 235.61,-2283.42"/>
<polygon fill="black" stroke="black" points="237.69,-2280.6 227.58,-2277.43 233.51,-2286.22 237.69,-2280.6"/>
</g>
<!-- xoptional_sequence.hpp&#45;&gt;xiterator_base.hpp -->
<g id="edge18" class="edge">
<title>xoptional_sequence.hpp&#45;&gt;xiterator_base.hpp</title>
<path fill="none" stroke="black" d="M768.78,-2671.75C734.93,-2616.68 629.86,-2439.21 578.54,-2278 529.42,-2123.68 512.12,-1928.42 507.21,-1857.4"/>
<polygon fill="black" stroke="black" points="510.68,-1856.84 506.53,-1847.09 503.7,-1857.3 510.68,-1856.84"/>
</g>
<!-- xoptional_sequence.hpp&#45;&gt;xoptional.hpp -->
<g id="edge16" class="edge">
<title>xoptional_sequence.hpp&#45;&gt;xoptional.hpp</title>
<path fill="none" stroke="black" d="M788.34,-2671.96C822.44,-2605.92 946,-2366.64 987.12,-2286.99"/>
<polygon fill="black" stroke="black" points="990.24,-2288.58 991.72,-2278.09 984.02,-2285.37 990.24,-2288.58"/>
</g>
<!-- xoptional_sequence.hpp&#45;&gt;xsequence.hpp -->
<g id="edge15" class="edge">
<title>xoptional_sequence.hpp&#45;&gt;xsequence.hpp</title>
<path fill="none" stroke="black" d="M849.23,-2677.08C1092.51,-2633.94 1897.53,-2477.92 2049.54,-2278 2147.87,-2148.68 2098.52,-1932.5 2076.91,-1857"/>
<polygon fill="black" stroke="black" points="2080.24,-1855.92 2074.07,-1847.31 2073.53,-1857.89 2080.24,-1855.92"/>
</g>
<!-- xsequence.hpp&#45;&gt;xtl_config.hpp -->
<g id="edge21" class="edge">
<title>xsequence.hpp&#45;&gt;xtl_config.hpp</title>
<path fill="none" stroke="black" d="M2070.68,-1810.79C2084.35,-1695.47 2153.9,-1024.24 1988.54,-520 1934.74,-355.94 1799.18,-193.16 1745.72,-133.17"/>
<polygon fill="black" stroke="black" points="1748.31,-130.82 1739.03,-125.72 1743.11,-135.5 1748.31,-130.82"/>
</g>
<!-- xsequence.hpp&#45;&gt;xmeta_utils.hpp -->
<g id="edge34" class="edge">
<title>xsequence.hpp&#45;&gt;xmeta_utils.hpp</title>
<path fill="none" stroke="black" d="M2044.66,-1812C1946.6,-1746.33 1574.82,-1497.31 1462.12,-1421.82"/>
<polygon fill="black" stroke="black" points="1463.8,-1418.73 1453.55,-1416.08 1459.91,-1424.55 1463.8,-1418.73"/>
</g>
<!-- xmasked_value.hpp -->
<g id="node19" class="node">
<title>xmasked_value.hpp</title>
<ellipse fill="none" stroke="black" cx="1825.54" cy="-1829" rx="83.39" ry="18"/>
<text text-anchor="middle" x="1825.54" y="-1825.3" font-family="Times New Roman,serif" font-size="14.00">xmasked_value.hpp</text>
</g>
<!-- xmasked_value.hpp&#45;&gt;xtype_traits.hpp -->
<g id="edge29" class="edge">
<title>xmasked_value.hpp&#45;&gt;xtype_traits.hpp</title>
<path fill="none" stroke="black" d="M1823.82,-1810.91C1817.77,-1751.44 1796.52,-1548.09 1772.54,-1381 1726.37,-1059.28 1655.14,-671.05 1635.63,-566.2"/>
<polygon fill="black" stroke="black" points="1639.03,-565.33 1633.76,-556.14 1632.15,-566.62 1639.03,-565.33"/>
</g>
<!-- xmasked_value.hpp&#45;&gt;xmasked_value_meta.hpp -->
<g id="edge28" class="edge">
<title>xmasked_value.hpp&#45;&gt;xmasked_value_meta.hpp</title>
<path fill="none" stroke="black" d="M1818.89,-1810.96C1793.18,-1745.06 1700.14,-1506.61 1668.88,-1426.48"/>
<polygon fill="black" stroke="black" points="1672.11,-1425.13 1665.21,-1417.09 1665.59,-1427.68 1672.11,-1425.13"/>
</g>
<!-- xhierarchy_generator.hpp -->
<g id="node20" class="node">
<title>xhierarchy_generator.hpp</title>
<ellipse fill="none" stroke="black" cx="1131.54" cy="-1829" rx="103.18" ry="18"/>
<text text-anchor="middle" x="1131.54" y="-1825.3" font-family="Times New Roman,serif" font-size="14.00">xhierarchy_generator.hpp</text>
</g>
<!-- xhierarchy_generator.hpp&#45;&gt;xmeta_utils.hpp -->
<g id="edge31" class="edge">
<title>xhierarchy_generator.hpp&#45;&gt;xmeta_utils.hpp</title>
<path fill="none" stroke="black" d="M1143.41,-1810.96C1189.48,-1744.79 1356.67,-1504.67 1411.78,-1425.51"/>
<polygon fill="black" stroke="black" points="1414.8,-1427.3 1417.64,-1417.09 1409.06,-1423.3 1414.8,-1427.3"/>
</g>
<!-- xbase64.hpp -->
<g id="node21" class="node">
<title>xbase64.hpp</title>
<ellipse fill="none" stroke="black" cx="1983.54" cy="-2260" rx="57.39" ry="18"/>
<text text-anchor="middle" x="1983.54" y="-2256.3" font-family="Times New Roman,serif" font-size="14.00">xbase64.hpp</text>
</g>
<!-- xbase64.hpp&#45;&gt;xsequence.hpp -->
<g id="edge33" class="edge">
<title>xbase64.hpp&#45;&gt;xsequence.hpp</title>
<path fill="none" stroke="black" d="M1986.93,-2241.92C1999.99,-2176 2047.18,-1937.83 2063.19,-1857.03"/>
<polygon fill="black" stroke="black" points="2066.64,-1857.62 2065.15,-1847.13 2059.77,-1856.26 2066.64,-1857.62"/>
</g>
<!-- xhalf_float.hpp -->
<g id="node23" class="node">
<title>xhalf_float.hpp</title>
<ellipse fill="none" stroke="black" cx="1842.54" cy="-968" rx="65.79" ry="18"/>
<text text-anchor="middle" x="1842.54" y="-964.3" font-family="Times New Roman,serif" font-size="14.00">xhalf_float.hpp</text>
</g>
<!-- xhalf_float.hpp&#45;&gt;xtype_traits.hpp -->
<g id="edge37" class="edge">
<title>xhalf_float.hpp&#45;&gt;xtype_traits.hpp</title>
<path fill="none" stroke="black" d="M1834.1,-949.96C1801.46,-884.06 1683.35,-645.61 1643.66,-565.48"/>
<polygon fill="black" stroke="black" points="1646.58,-563.5 1639.01,-556.09 1640.31,-566.61 1646.58,-563.5"/>
</g>
<!-- xhalf_float_impl.hpp -->
<g id="node28" class="node">
<title>xhalf_float_impl.hpp</title>
<ellipse fill="none" stroke="black" cx="1822.54" cy="-538" rx="86.38" ry="18"/>
<text text-anchor="middle" x="1822.54" y="-534.3" font-family="Times New Roman,serif" font-size="14.00">xhalf_float_impl.hpp</text>
</g>
<!-- xhalf_float.hpp&#45;&gt;xhalf_float_impl.hpp -->
<g id="edge47" class="edge">
<title>xhalf_float.hpp&#45;&gt;xhalf_float_impl.hpp</title>
<path fill="none" stroke="black" d="M1841.75,-949.96C1838.68,-884.33 1827.62,-647.55 1823.83,-566.47"/>
<polygon fill="black" stroke="black" points="1827.31,-565.92 1823.34,-556.09 1820.31,-566.24 1827.31,-565.92"/>
</g>
<!-- xvisitor.hpp -->
<g id="node24" class="node">
<title>xvisitor.hpp</title>
<ellipse fill="none" stroke="black" cx="1306.54" cy="-1829" rx="53.89" ry="18"/>
<text text-anchor="middle" x="1306.54" y="-1825.3" font-family="Times New Roman,serif" font-size="14.00">xvisitor.hpp</text>
</g>
<!-- xvisitor.hpp&#45;&gt;xmeta_utils.hpp -->
<g id="edge38" class="edge">
<title>xvisitor.hpp&#45;&gt;xmeta_utils.hpp</title>
<path fill="none" stroke="black" d="M1311.44,-1810.96C1330.34,-1745.19 1398.63,-1507.58 1421.79,-1426.97"/>
<polygon fill="black" stroke="black" points="1425.23,-1427.67 1424.63,-1417.09 1418.51,-1425.74 1425.23,-1427.67"/>
</g>
<!-- xspan_impl.hpp -->
<g id="node26" class="node">
<title>xspan_impl.hpp</title>
<ellipse fill="none" stroke="black" cx="69.54" cy="-1399" rx="69.59" ry="18"/>
<text text-anchor="middle" x="69.54" y="-1395.3" font-family="Times New Roman,serif" font-size="14.00">xspan_impl.hpp</text>
</g>
<!-- xspan.hpp&#45;&gt;xspan_impl.hpp -->
<g id="edge41" class="edge">
<title>xspan.hpp&#45;&gt;xspan_impl.hpp</title>
<path fill="none" stroke="black" d="M80.11,-1810.96C78.42,-1745.33 72.33,-1508.55 70.25,-1427.47"/>
<polygon fill="black" stroke="black" points="73.74,-1427 69.98,-1417.09 66.74,-1427.18 73.74,-1427"/>
</g>
</g>
</svg>
